<svg width="27" height="28" viewBox="0 0 27 28" fill="none" xmlns="http://www.w3.org/2000/svg">
<path d="M23.3769 10.4133C23.3769 10.4133 22.6076 19.9546 22.1614 23.9737C21.9489 25.8932 20.7631 27.0181 18.8209 27.0535C15.1248 27.1201 11.4244 27.1243 7.72978 27.0464C5.8612 27.0082 4.69528 25.8692 4.48703 23.9836C4.03795 19.9291 3.27295 10.4133 3.27295 10.4133" stroke="white" stroke-width="1.5" stroke-linecap="round" stroke-linejoin="round"/>
<path d="M25.3366 5.83962H1.31274" stroke="white" stroke-width="1.5" stroke-linecap="round" stroke-linejoin="round"/>
<path d="M20.7076 5.8396C19.5955 5.8396 18.6378 5.05335 18.4197 3.96393L18.0754 2.24127C17.8629 1.44652 17.1432 0.896851 16.323 0.896851H10.3262C9.50598 0.896851 8.78632 1.44652 8.57382 2.24127L8.22957 3.96393C8.0114 5.05335 7.05373 5.8396 5.94165 5.8396" stroke="white" stroke-width="1.5" stroke-linecap="round" stroke-linejoin="round"/>
</svg>
